<?xml version="1.0" encoding="UTF-8" standalone="no"?>
<!-- Created with Inkscape (http://www.inkscape.org/) -->

<svg
   xmlns:dc="http://purl.org/dc/elements/1.1/"
   xmlns:cc="http://creativecommons.org/ns#"
   xmlns:rdf="http://www.w3.org/1999/02/22-rdf-syntax-ns#"
   xmlns:svg="http://www.w3.org/2000/svg"
   xmlns="http://www.w3.org/2000/svg"
   version="1.1"
   width="819"
   height="348"
   id="svg3034">
  <defs
     id="defs3036" />
  <metadata
     id="metadata3039">
    <rdf:RDF>
      <cc:Work
         rdf:about="">
        <dc:format>image/svg+xml</dc:format>
        <dc:type
           rdf:resource="http://purl.org/dc/dcmitype/StillImage" />
        <dc:title></dc:title>
      </cc:Work>
    </rdf:RDF>
  </metadata>
  <g
     id="layer1">
    <text
       x="111.57875"
       y="89.172089"
       id="soustitre1-1"
       xml:space="preserve"
       style="font-size:42.88820267px;font-style:normal;font-variant:normal;font-weight:bold;font-stretch:normal;line-height:125%;letter-spacing:0px;word-spacing:0px;fill:#c9462c;fill-opacity:1;stroke:none;font-family:Montserrat;-inkscape-font-specification:Sans Bold"><tspan
         x="111.57875"
         y="89.172089"
         id="tspan3015-4"
         style="font-size:42.88820267px;font-style:normal;font-variant:normal;font-weight:400;font-stretch:normal;text-align:start;line-height:125%;writing-mode:lr-tb;text-anchor:start;fill:#c9462c;fill-opacity:1;font-family:Montserrat;-inkscape-font-specification:Montserrat Medium">Nous nous</tspan></text>
    <text
       x="73.989822"
       y="146.33542"
       id="soustitres2-1"
       xml:space="preserve"
       style="font-size:53.53165817px;font-style:normal;font-variant:normal;font-weight:bold;font-stretch:normal;line-height:125%;letter-spacing:0px;word-spacing:0px;fill:#04b4c7;fill-opacity:1;stroke:none;font-family:Montserrat;-inkscape-font-specification:Sans Bold"><tspan
         x="73.989822"
         y="146.33542"
         id="tspan3019-1"
         style="font-size:53.53165817px;font-style:normal;font-variant:normal;font-weight:bold;font-stretch:normal;text-align:start;line-height:125%;writing-mode:lr-tb;text-anchor:start;fill:#04b4c7;fill-opacity:1;font-family:Montserrat;-inkscape-font-specification:Montserrat Bold">engageons</tspan></text>
    <text
       x="163.81361"
       y="203.16"
       id="text3175"
       xml:space="preserve"
       style="font-size:42.88820267px;font-style:normal;font-variant:normal;font-weight:bold;font-stretch:normal;line-height:125%;letter-spacing:0px;word-spacing:0px;fill:#c9462c;fill-opacity:1;stroke:none;font-family:Montserrat;-inkscape-font-specification:Sans Bold"><tspan
         x="163.81361"
         y="203.16"
         id="tspan3177"
         style="font-size:42.88820267px;font-style:normal;font-variant:normal;font-weight:400;font-stretch:normal;text-align:start;line-height:125%;writing-mode:lr-tb;text-anchor:start;fill:#c9462c;fill-opacity:1;font-family:Montserrat;-inkscape-font-specification:Montserrat Medium">à être</tspan></text>
    <path
       d="m 55.482906,66.084666 c -4.10953,-0.85 -7.65678,-4.0212 -9.53925,-8.52794 -0.8317,-1.99116 -0.93049,-2.6534 -0.94301,-6.32261 -0.0115,-3.36798 0.12599,-4.53324 0.77137,-6.53748 1.78117,-5.53133 6.48244,-11.40091 12.365,-15.43784 1.76182,-1.20905 2.32831,-1.42032 3.80848,-1.42032 2.08984,0 1.9458,0.31932 -1.02353,2.26902 -3.13089,2.05581 -6.26558,5.45094 -7.13822,7.73132 -1.06393,2.78019 -1.33303,5.88764 -0.65118,7.51953 0.69219,1.65663 2.00376,2.2158 6.12645,2.61188 3.52411,0.33859 4.6739,0.69518 6.34076,1.96656 3.73863,2.8516 3.71747,10.34789 -0.0386,13.64568 -2.28424,2.0056 -6.91766,3.15595 -10.07834,2.5022 z m 30.25384,-0.003 c -2.44477,-0.41231 -5.64568,-2.28015 -7.13387,-4.16284 -4.28331,-5.41881 -4.94728,-12.5357 -1.8276,-19.58985 2.06108,-4.66046 6.59436,-9.86075 11.36995,-13.04289 1.83285,-1.22119 2.44169,-1.44822 3.88416,-1.44822 1.53749,0 1.66417,0.056 1.25184,0.55279 -0.25234,0.30405 -1.53914,1.28214 -2.85954,2.17353 -1.32043,0.8914 -3.06711,2.34409 -3.88153,3.22819 -4.09937,4.45024 -5.05529,11.64055 -1.77321,13.33779 0.60862,0.31472 2.34881,0.63914 4.04003,0.75316 6.752374,0.45518 9.630974,3.14873 9.630974,9.01183 0,4.95658 -3.12008,8.29234 -8.585724,9.17921 -1.19506,0.19392 -2.24969,0.33566 -2.34362,0.31499 -0.0939,-0.0207 -0.89126,-0.15911 -1.77186,-0.30762 z"
       id="path3202"
       style="fill:#c9462c;fill-opacity:1" />
    <path
       d="m 360.98738,307.69029 c 4.10954,-0.85 7.6568,-4.0212 9.53926,-8.5279 0.83172,-1.9912 0.93049,-2.6534 0.94303,-6.3227 0.0115,-3.36794 -0.12599,-4.5332 -0.77138,-6.53745 -1.78115,-5.53132 -6.48243,-11.4009 -12.36502,-15.43784 -1.76181,-1.20904 -2.32829,-1.4203 -3.80846,-1.4203 -2.08984,0 -1.94582,0.31931 1.02353,2.26902 3.13089,2.05581 6.26557,5.45094 7.13823,7.73132 1.06392,2.78019 1.33301,5.88764 0.65116,7.51953 -0.69218,1.65662 -2.00375,2.21578 -6.12644,2.61188 -3.52411,0.33858 -4.6739,0.69518 -6.34076,1.96654 -3.73863,2.8516 -3.71749,10.3479 0.0386,13.6457 2.28422,2.0056 6.91765,3.1559 10.07834,2.5022 z m -30.25382,0 c 2.44478,-0.4123 5.64568,-2.2802 7.13387,-4.1628 4.28332,-5.4188 4.94727,-12.5357 1.8276,-19.58988 -2.06108,-4.66048 -6.59436,-9.86077 -11.36995,-13.04289 -1.83285,-1.22121 -2.44169,-1.44824 -3.88417,-1.44824 -1.53749,0 -1.66417,0.056 -1.25182,0.5528 0.25233,0.30404 1.53912,1.28213 2.85954,2.17353 1.32043,0.89139 3.0671,2.34408 3.8815,3.2282 4.09938,4.45023 5.05532,11.64054 1.77322,13.33778 -0.60861,0.31472 -2.34879,0.63913 -4.04003,0.75314 -6.75237,0.4552 -9.63095,3.14876 -9.63095,9.01186 0,4.9566 3.12007,8.2923 8.58571,9.1792 1.19506,0.1939 2.24969,0.3357 2.34363,0.315 0.0939,-0.021 0.89125,-0.1591 1.77185,-0.3076 z"
       id="path3206"
       style="fill:#c9462c;fill-opacity:1" />
    <text
       x="121.87431"
       y="263.59091"
       id="text3208"
       xml:space="preserve"
       style="font-size:53.53165817px;font-style:normal;font-variant:normal;font-weight:bold;font-stretch:normal;line-height:125%;letter-spacing:0px;word-spacing:0px;fill:#04b4c7;fill-opacity:1;stroke:none;font-family:Montserrat;-inkscape-font-specification:Sans Bold"><tspan
         x="121.87431"
         y="263.59091"
         id="tspan3210"
         style="font-size:53.53165817px;font-style:normal;font-variant:normal;font-weight:bold;font-stretch:normal;text-align:start;line-height:125%;writing-mode:lr-tb;text-anchor:start;fill:#04b4c7;fill-opacity:1;font-family:Montserrat;-inkscape-font-specification:Montserrat Bold">assidus</tspan></text>
    <text
       x="617.07007"
       y="162.93954"
       id="text3044"
       xml:space="preserve"
       style="font-size:131.25570679px;font-style:normal;font-variant:normal;font-weight:bold;font-stretch:normal;line-height:125%;letter-spacing:0px;word-spacing:0px;text-anchor:middle;fill:#04b4c7;fill-opacity:1;stroke:none;font-family:Montserrat;-inkscape-font-specification:Sans Bold"><tspan
         x="617.07007"
         y="162.93954"
         id="tspan3046"
         style="fill:#04b4c7;fill-opacity:1">$stat%</tspan></text>
    <text
       x="455.27798"
       y="266.11386"
       id="soustitre3"
       xml:space="preserve"
       style="font-size:33.64440536px;font-style:normal;font-variant:normal;font-weight:bold;font-stretch:normal;line-height:125%;letter-spacing:0px;word-spacing:0px;fill:#04b4c7;fill-opacity:1;stroke:none;font-family:Montserrat;-inkscape-font-specification:Sans Bold"><tspan
         x="455.27798"
         y="266.11386"
         id="tspan3023"
         style="font-size:33.64440536px;font-style:normal;font-variant:normal;font-weight:400;font-stretch:normal;text-align:start;line-height:125%;writing-mode:lr-tb;text-anchor:start;fill:#04b4c7;fill-opacity:1;font-family:Montserrat;-inkscape-font-specification:Montserrat Medium">en </tspan></text>
    <text
       x="509.12866"
       y="268.16849"
       id="text3272"
       xml:space="preserve"
       style="font-size:42.50504303px;font-style:normal;font-variant:normal;font-weight:bold;font-stretch:normal;line-height:125%;letter-spacing:0px;word-spacing:0px;fill:#c9462c;fill-opacity:1;stroke:none;font-family:Montserrat;-inkscape-font-specification:Sans Bold"><tspan
         x="509.12866"
         y="268.16849"
         id="tspan3274"
         style="font-size:42.50504303px;font-style:normal;font-variant:normal;font-weight:bold;font-stretch:normal;text-align:start;line-height:125%;writing-mode:lr-tb;text-anchor:start;fill:#c9462c;fill-opacity:1;font-family:Montserrat;-inkscape-font-specification:Montserrat Bold">commission</tspan></text>
    <text
       x="535.71301"
       y="224.13675"
       id="soustitres2"
       xml:space="preserve"
       style="font-size:42.50504303px;font-style:normal;font-variant:normal;font-weight:bold;font-stretch:normal;line-height:125%;letter-spacing:0px;word-spacing:0px;fill:#c9462c;fill-opacity:1;stroke:none;font-family:Montserrat;-inkscape-font-specification:Sans Bold"><tspan
         x="535.71301"
         y="224.13675"
         id="tspan3019"
         style="font-size:42.50504303px;font-style:normal;font-variant:normal;font-weight:bold;font-stretch:normal;text-align:start;line-height:125%;writing-mode:lr-tb;text-anchor:start;fill:#c9462c;fill-opacity:1;font-family:Montserrat;-inkscape-font-specification:Montserrat Bold">présence</tspan></text>
    <text
       x="483.27798"
       y="220.37198"
       id="text3276"
       xml:space="preserve"
       style="font-size:33.64440536px;font-style:normal;font-variant:normal;font-weight:bold;font-stretch:normal;line-height:125%;letter-spacing:0px;word-spacing:0px;fill:#04b4c7;fill-opacity:1;stroke:none;font-family:Montserrat;-inkscape-font-specification:Sans Bold"><tspan
         x="483.27798"
         y="220.37198"
         id="tspan3278"
         style="font-size:33.64440536px;font-style:normal;font-variant:normal;font-weight:400;font-stretch:normal;text-align:start;line-height:125%;writing-mode:lr-tb;text-anchor:start;fill:#04b4c7;fill-opacity:1;font-family:Montserrat;-inkscape-font-specification:Montserrat Medium">de </tspan></text>
  </g>
</svg>
