<?xml version="1.0" encoding="UTF-8" standalone="no"?>
<!-- Created with Inkscape (http://www.inkscape.org/) -->

<svg
   xmlns:dc="http://purl.org/dc/elements/1.1/"
   xmlns:cc="http://creativecommons.org/ns#"
   xmlns:rdf="http://www.w3.org/1999/02/22-rdf-syntax-ns#"
   xmlns:svg="http://www.w3.org/2000/svg"
   xmlns="http://www.w3.org/2000/svg"
   version="1.1"
   width="710.8125"
   height="349.34375"
   id="svg3157">
  <defs
     id="defs3159" />
  <metadata
     id="metadata3162">
    <rdf:RDF>
      <cc:Work
         rdf:about="">
        <dc:format>image/svg+xml</dc:format>
        <dc:type
           rdf:resource="http://purl.org/dc/dcmitype/StillImage" />
        <dc:title></dc:title>
      </cc:Work>
    </rdf:RDF>
  </metadata>
  <g
     id="layer1">
    <text
       x="304.32483"
       y="181.12952"
       id="text3044"
       xml:space="preserve"
       style="font-size:129.75027466px;font-style:normal;font-variant:normal;font-weight:bold;font-stretch:normal;line-height:125%;letter-spacing:0px;word-spacing:0px;fill:#04b4c7;fill-opacity:1;stroke:none;font-family:Montserrat;-inkscape-font-specification:Sans Bold"><tspan
         x="304.32483"
         y="181.12952"
         id="tspan3046"
         style="fill:#04b4c7;fill-opacity:1">$stat%</tspan></text>
    <text
       x="239.66681"
       y="254.30711"
       id="soustitre1"
       xml:space="preserve"
       style="font-size:35.74801636px;font-style:normal;font-variant:normal;font-weight:bold;font-stretch:normal;line-height:125%;letter-spacing:0px;word-spacing:0px;fill:#04b4c7;fill-opacity:1;stroke:none;font-family:Montserrat;-inkscape-font-specification:Sans Bold"><tspan
         x="239.66681"
         y="254.30711"
         id="tspan3015"
         style="font-size:35.74801636px;font-style:normal;font-variant:normal;font-weight:400;font-stretch:normal;text-align:start;line-height:125%;writing-mode:lr-tb;text-anchor:start;fill:#04b4c7;fill-opacity:1;font-family:Montserrat;-inkscape-font-specification:Montserrat Medium">de</tspan></text>
    <text
       x="300.77087"
       y="256.40613"
       id="soustitres2"
       xml:space="preserve"
       style="font-size:49.13347244px;font-style:normal;font-variant:normal;font-weight:bold;font-stretch:normal;line-height:125%;letter-spacing:0px;word-spacing:0px;fill:#c9462c;fill-opacity:1;stroke:none;font-family:Montserrat;-inkscape-font-specification:Sans Bold"><tspan
         x="300.77087"
         y="256.40613"
         id="tspan3019"
         style="font-size:49.13347244px;font-style:normal;font-variant:normal;font-weight:bold;font-stretch:normal;text-align:start;line-height:125%;writing-mode:lr-tb;text-anchor:start;fill:#c9462c;fill-opacity:1;font-family:Montserrat;-inkscape-font-specification:Montserrat Bold">participation</tspan></text>
    <text
       x="168.79626"
       y="305.21515"
       id="soustitre3"
       xml:space="preserve"
       style="font-size:38.8910675px;font-style:normal;font-variant:normal;font-weight:bold;font-stretch:normal;line-height:125%;letter-spacing:0px;word-spacing:0px;fill:#04b4c7;fill-opacity:1;stroke:none;font-family:Montserrat;-inkscape-font-specification:Sans Bold"><tspan
         x="168.79626"
         y="305.21515"
         id="tspan3023"
         style="font-size:38.8910675px;font-style:normal;font-variant:normal;font-weight:400;font-stretch:normal;text-align:start;line-height:125%;writing-mode:lr-tb;text-anchor:start;fill:#04b4c7;fill-opacity:1;font-family:Montserrat;-inkscape-font-specification:Montserrat Medium">aux scrutins publics</tspan></text>
    <rect
       width="1024"
       height="76"
       x="717.51349"
       y="449.63852"
       id="bandeau1"
       style="fill:#c9462c;fill-opacity:1;stroke:none" />
    <rect
       width="710"
       height="50"
       x="1031.5135"
       y="525.63849"
       id="bandeau2"
       style="fill:#04b4c7;fill-opacity:1;stroke:none" />
    <path
       d="m 94.992806,185.45664 c 0.454128,-16.24696 0.342608,-19.0347 -0.862647,-21.56214 -1.444558,-3.02923 -0.928547,-5.27786 2.044564,-8.91026 0.597331,-0.72976 1.888832,-6.06016 2.870077,-11.84551 0.98125,-5.78535 2.69828,-14.12719 3.81561,-18.53747 1.11736,-4.41014 2.03157,-8.32276 2.03157,-8.69426 0,-1.31085 -4.81699,1.83656 -7.707618,5.03609 -3.554993,3.93498 -8.27463,11.59348 -11.840273,19.21311 -1.457273,3.1141 -2.739661,5.54799 -2.849772,5.40873 -0.110068,-0.13955 0.13812,-3.65205 0.551523,-7.80616 1.162154,-11.67621 4.802239,-21.3702 11.058233,-29.44947 3.129029,-4.04092 2.44232,-5.2165 -2.60513,-4.45969 -11.712391,1.75654 -23.948283,9.66992 -30.748538,19.8862 -1.377919,2.07008 -1.390506,2.03406 -0.588161,-1.69218 1.040979,-4.83474 4.036986,-11.30571 7.247378,-15.65305 4.151141,-5.62146 15.204517,-10.542636 23.733073,-10.566415 1.977769,-0.01424 3.595943,-0.350282 3.595943,-0.766064 0,-1.314412 -11.195454,-8.433395 -16.922209,-10.760777 -6.721385,-2.731488 -15.823548,-5.405449 -18.400186,-5.405449 -1.048553,0 -1.906431,-0.337894 -1.906431,-0.750829 0,-0.413076 3.758839,-1.211463 8.352944,-1.774192 15.598386,-1.910746 27.063088,1.558328 36.570894,11.066206 l 4.94781,4.947805 2.10602,-2.761106 c 4.1692,-5.466108 6.62418,-12.219716 6.72914,-18.511692 l 0.0978,-5.865942 1.26916,2.805816 c 0.9341,2.06524 1.26918,5.933293 1.26918,14.651471 l 0,11.845512 8.05967,0 c 7.36235,0 8.53364,0.234376 13.53778,2.708135 8.41538,4.160101 16.931,13.504941 20.84674,22.876691 l 1.25681,3.00787 -4.84196,-4.31559 c -4.85429,-4.32655 -13.1791,-8.91496 -21.09072,-11.62452 -4.33982,-1.48628 -14.99657,-2.15651 -16.14559,-1.01525 -0.35325,0.351 0.1226,1.49312 1.05742,2.53841 2.66505,2.97968 5.03173,7.30381 7.85046,14.34319 2.63794,6.58801 5.47262,18.27775 4.97288,20.50731 -0.15042,0.67109 -4.03405,-4.0674 -8.63028,-10.52996 -8.94214,-12.57328 -10.54031,-14.38634 -14.4762,-16.4231 -2.37766,-1.23041 -2.56305,-1.20805 -3.15024,0.37933 -0.34316,0.92753 -1.08115,11.26541 -1.64003,22.97309 l -1.01615,21.28675 2.82362,2.35728 c 6.67984,5.57646 17.70139,8.10903 44.00715,10.11205 25.12724,1.91316 70.79502,-0.30899 82.4958,-4.01415 5.3585,-1.69688 13.42611,-5.90838 15.31391,-7.99441 1.34205,-1.483 1.37422,-3.11124 0.44126,-22.33403 -0.55348,-11.40396 -1.28421,-21.48582 -1.62386,-22.40381 -0.58034,-1.56887 -0.76973,-1.59065 -3.14388,-0.3621 -3.98104,2.06011 -5.72537,4.04404 -14.54801,16.54669 -4.55462,6.4543 -8.41575,11.33148 -8.58024,10.83796 -0.63102,-1.89309 0.8249,-6.72912 2.02583,-6.72912 0.94329,0 1.23616,-1.23539 1.25371,-5.28826 0.0266,-6.15842 3.05464,-14.14898 7.93683,-20.94459 1.67184,-2.32724 3.03972,-4.40344 3.03972,-4.6139 0,-0.21046 -1.35126,-0.63635 -3.00281,-0.94605 -3.84111,-0.72064 -11.43593,0.77618 -18.28182,3.60307 -2.95232,1.21915 -6.60529,2.14697 -8.11771,2.06182 -2.21914,-0.1253 -2.74986,0.16532 -2.74986,1.50266 0,0.91158 -1.04707,2.48472 -2.32681,3.49598 l -2.3268,1.83855 -0.2646,-2.616 c -0.14551,-1.43887 0.33507,-3.47591 1.06796,-4.52704 3.40535,-4.88359 10.49671,-11.045567 15.6112,-13.565177 5.06807,-2.496685 6.22904,-2.729779 13.60074,-2.729779 l 8.05967,0 0,-11.845512 c 0,-8.718178 0.33508,-12.586231 1.26918,-14.651471 l 1.26916,-2.805816 0.0978,5.865942 c 0.10494,6.291976 2.55993,13.045584 6.72914,18.511692 l 2.10603,2.761106 4.9478,-4.947805 c 9.50781,-9.507878 20.97252,-12.976952 36.57088,-11.066206 4.59415,0.562729 8.35299,1.273973 8.35299,1.580541 0,0.306568 -2.18931,0.985203 -4.86513,1.508063 -8.17376,1.597201 -19.55537,6.222205 -26.12412,10.615539 -3.4318,2.295344 -6.23962,4.526612 -6.23962,4.958199 0,0.43173 1.67946,0.785002 3.73212,0.785002 4.64076,0 12.75666,2.47376 17.78643,5.421402 5.69229,3.33593 11.14139,12.02706 13.05225,20.818 0.80774,3.71598 0.79524,3.75215 -0.58254,1.68221 -5.53551,-8.31635 -14.19838,-14.84142 -24.12979,-18.17537 -10.50722,-3.52703 -13.41295,-2.66115 -9.22386,2.74886 6.25596,8.07927 9.89606,17.77326 11.05821,29.44947 0.41347,4.15411 0.66164,7.66676 0.55153,7.80616 -0.11007,0.13954 -1.39253,-2.29463 -2.84977,-5.40873 -3.56568,-7.61963 -8.28528,-15.27813 -11.84028,-19.21311 -2.89062,-3.19953 -7.70762,-6.34694 -7.70762,-5.03609 0,0.3715 0.915,4.28412 2.03334,8.69426 1.11835,4.41028 2.86875,12.96741 3.88978,19.0159 1.02105,6.04863 2.23338,11.7017 2.69408,12.56259 0.98511,1.84055 1.96365,47.93652 1.01763,47.93652 -1.29956,0 -13.45976,-3.56646 -13.98323,-4.10114 -0.2975,-0.30386 -0.058,-3.40813 0.5325,-6.89828 0.59038,-3.49029 1.31515,-8.553 1.61061,-11.25074 l 0.53717,-4.90481 -4.87719,3.30689 c -18.45019,12.51048 -45.69346,18.98102 -74.25828,17.63727 -24.65051,-1.15977 -44.70562,-6.87222 -59.55775,-16.96461 -2.50831,-1.70457 -4.6803,-2.97925 -4.82664,-2.83301 -0.20867,0.2086 1.43543,14.32582 2.43245,20.88577 0.12801,0.84253 -1.78906,1.81051 -6.15993,3.11025 -3.490238,1.03789 -6.881965,1.9153 -7.537206,1.94976 -1.005152,0.0527 -1.109824,-2.85323 -0.669764,-18.59698 z m 68.661564,-14.31685 c -19.12273,-1.69246 -22.83401,-4.23258 -14.74556,-10.09169 4.56667,-3.30802 12.36224,-5.77082 20.51657,-6.48135 l 6.57485,-0.57313 c 0.0447,0.21131 2.29858,0.11961 5.87339,0.49011 2.73452,0.28593 6.98636,1.28523 9.44856,2.22074 l 4.47668,1.701 3.19366,-3.11851 c 5.88782,-5.37782 6.1223,-3.71868 10.8444,-9.15389 3.25077,-2.04104 2.62012,-2.23454 4.66831,-2.0389 0.58171,0 0.63942,9.58648 -0.87299,10.77843 -1.51244,1.19196 -5.51555,4.78036 -5.51654,5.09575 -7e-4,0.31526 2.4739,0.44555 5.49972,0.28948 3.02583,-0.15606 5.5015,-0.60017 5.5015,-0.98705 0,-0.38688 -0.91474,-1.71852 -2.32682,-2.51933 -1.81504,-1.02934 -4.43395,-1.13314 -4.43395,-1.13314 1.4813,-3.82021 -1.57979,-15.74148 5.73236,-9.90786 1.57533,1.56217 4.81574,5.11127 4.81574,5.11127 0,0 2.90604,2.54097 10.17865,9.32861 2.79457,2.60818 2.77218,6.27973 0.20637,7.90071 -1.78486,1.12774 -8.01134,1.56573 -37.44039,2.63395 -3.25753,0.11818 -10.11103,0.42148 -15.22999,0.67379 -5.11898,0.25232 -12.753,0.15364 -16.96452,-0.21899 z m -35.58901,-2.54339 c -2.37183,-0.95829 -5.16095,-4.59411 -5.81758,-7.58389 -0.70676,-3.21776 1.37249,-7.99028 4.32366,-9.92381 1.37669,-0.90204 3.90137,-1.5465 6.05845,-1.5465 3.18989,0 4.09631,0.43429 6.59458,3.16036 3.24939,3.54583 3.8079,7.42954 1.66448,11.5744 -2.08109,4.0244 -8.33786,6.13193 -12.82359,4.31944 z m 66.51434,-46.45295 c 0,-0.46534 0.38076,-1.08146 0.84612,-1.36909 0.46536,-0.28763 0.8461,-0.14239 0.8461,0.32323 0,0.46533 -0.38074,1.08146 -0.8461,1.36909 -0.46536,0.28748 -0.84612,0.14239 -0.84612,-0.32323 z"
       id="path5291"
       style="fill:#04b4c7;fill-opacity:1" />
  </g>
</svg>
