<?xml version="1.0" encoding="UTF-8"?>
<svg width="861px" height="740px" viewBox="0 0 861 740" version="1.1" xmlns="http://www.w3.org/2000/svg" xmlns:xlink="http://www.w3.org/1999/xlink">
    <!-- Generator: Sketch 42 (36781) - http://www.bohemiancoding.com/sketch -->
    <title>layer1</title>
    <desc>Created with Sketch.</desc>
    <defs></defs>
    <g id="Page-1" stroke="none" stroke-width="1" fill="none" fill-rule="evenodd">
        <g id="layer1" fill-rule="nonzero">
            <path d="M430.753764,585.49359 L274.772424,585.49359 C242.73526,583.07422 261.106244,551.93741 275.034634,514.14415 C276.351142,511.208688 277.416638,508.180438 278.221124,505.08781 C278.281324,504.91064 278.341604,504.73702 278.401834,504.56269 L278.348734,504.56069 C279.501975,500.064178 280.097389,495.458646 280.123224,490.83498 C280.123365,474.85073 273.325214,459.521101 261.224288,448.218437 C249.123361,436.915773 232.710904,430.565929 215.59747,430.5658 C198.483915,430.565757 182.071279,436.915524 169.970202,448.218207 C157.869125,459.520889 151.070879,474.850617 151.07102,490.83498 C151.093893,495.456127 151.685732,500.059485 152.83487,504.55431 L152.51952,504.55431 C166.38661,546.52691 190.84606,582.84616 156.18011,585.48592 L0.43831,585.48592 L0.43831,429.73313 C3.07801,395.06458 39.39481,419.5258 81.3642,433.3943 L81.3642,433.07895 C85.8585652,434.228098 90.4614443,434.819939 95.08211,434.84281 C111.065318,434.842988 126.393952,428.044274 137.695837,415.942328 C148.997722,403.840383 155.347054,387.426551 155.34703,370.31174 C155.346875,353.197053 148.997465,336.783406 137.695599,324.681617 C126.393733,312.579828 111.065202,305.781212 95.08211,305.78139 L95.08111,305.78139 C90.4579259,305.807219 85.8528728,306.402632 81.35682,307.55588 L81.35482,307.50268 C81.17765,307.55938 81.00403,307.62315 80.8297,307.68339 C77.7373208,308.487862 74.7093081,309.553358 71.77407,310.86988 C33.98361,324.79867 2.84931,343.17107 0.43031,311.13214 L0.43031,155.139452 L156.17176,155.139452 C190.8377,152.499682 166.37825,116.180432 152.51117,74.207836 L152.82652,74.207836 C151.677289,69.7131379 151.08533,65.1098992 151.06231,60.488856 C151.062073,44.5043759 157.860326,29.17451 169.961491,17.8717441 C182.062656,6.5689782 198.47544,0.219203716 215.58912,0.219336 C232.702555,0.219554485 249.114975,6.56948382 261.215834,17.8722117 C273.316693,29.1749395 280.114751,44.5046051 280.114514,60.488856 C280.088653,65.112404 279.493243,69.7178158 278.340034,74.214214 L278.393134,74.216314 C278.336434,74.39348 278.272654,74.567102 278.212424,74.741432 C277.408048,77.8340502 276.342666,80.8622999 275.026274,83.7977707 C261.098044,121.590686 242.72741,152.727496 274.763874,155.146866 L430.743794,155.146866 L430.743794,311.13919 C428.324424,343.17919 397.190094,324.80679 359.399664,310.87699 C356.46407,309.56053 353.435698,308.495151 350.342964,307.69085 C350.165804,307.63065 349.992184,307.57037 349.817854,307.51014 L349.815854,307.56324 C345.3197,306.409846 340.714528,305.814315 336.091214,305.7884 L336.090214,305.7884 C320.10712,305.788219 304.778586,312.586833 293.476718,324.688623 C282.17485,336.790413 275.825439,353.204062 275.825284,370.31875 C275.825174,387.433624 282.174468,403.847547 293.476365,415.949568 C304.778262,428.05159 320.106947,434.850351 336.090214,434.85017 C340.710997,434.827328 345.313995,434.235486 349.808474,433.08631 L349.808474,433.40166 C391.777884,419.53351 428.094664,395.07229 430.734064,429.74072 L430.753764,585.49359 Z" id="path5730" fill="#CCCCCC"></path>
            <path d="M645.3205,1.109766 C628.205496,1.10965578 611.791459,7.45904611 599.689417,18.7610945 C587.587374,30.0631428 580.788701,45.392008 580.78908,61.375396 C580.811832,65.9960496 581.403553,70.5989295 582.55258,75.0933087 L582.23723,75.0933087 C595.13345,114.121062 617.18026,148.253392 592.3314,154.970082 L430.145384,154.970082 L430.145384,310.7119 C430.145384,310.91387 430.184384,311.10662 430.202084,311.30576 C427.576844,342.84544 396.535704,324.56623 358.884524,310.69064 C355.949263,309.374531 352.921252,308.309391 349.828894,307.50521 C349.651734,307.44851 349.481654,307.38473 349.304134,307.3245 L349.302134,307.3776 C344.805749,306.224269 340.200336,305.628739 335.576774,305.60276 C319.5924,305.60232 304.262551,312.400289 292.95967,324.50117 C281.656788,336.60205 275.306762,353.014584 275.306544,370.12815 C275.306497,387.241704 281.656261,403.654342 292.958942,415.755421 C304.261623,427.8565 319.59135,434.654749 335.575714,434.65461 C340.196732,434.63182 344.799971,434.040095 349.294694,432.8911 L349.294694,433.20646 C391.025284,419.41945 427.161694,395.17154 430.171734,428.96158 C430.171734,429.0785 430.136334,429.18835 430.136334,429.30528 L430.136334,585.28697 L592.32235,585.28697 C617.17086,592.00366 595.12546,626.1374 582.2296,665.16516 L582.54141,665.16516 C581.392262,669.659525 580.800421,674.262404 580.77755,678.88307 C580.777171,694.866515 587.575892,710.195429 599.67801,721.497487 C611.780129,732.799545 628.194256,739.148897 645.30932,739.1487 C645.325853,739.148373 645.342387,739.148039 645.35892,739.1477 C645.37072,739.148036 645.38252,739.14837 645.39432,739.1487 C662.509324,739.14881 678.923361,732.79942 691.025403,721.497372 C703.127446,710.195323 709.926119,694.866458 709.92574,678.88307 C709.902987,674.262417 709.311266,669.659538 708.16224,665.16516 L708.47759,665.16516 C695.58137,626.1374 673.53456,592.00366 698.38342,585.28697 L860.57015,585.28697 L860.57015,429.54516 C860.57015,429.34319 860.53115,429.15221 860.51345,428.95378 C860.51345,428.76244 860.55245,428.58173 860.57015,428.39429 L860.57015,311.59732 C860.57015,311.49457 860.53475,311.3989 860.53475,311.29614 C860.53475,311.17921 860.57015,311.06937 860.57015,310.95244 L860.57015,154.970742 L860.48515,154.970742 L698.38594,154.970742 C673.53743,148.254042 695.58389,114.120302 708.48011,75.0925497 L708.16476,75.0925497 C709.313787,70.5981702 709.905508,65.9952899 709.92826,61.374636 C709.928639,45.3914211 703.130113,30.0627074 691.028302,18.7606878 C678.92649,7.45866813 662.512728,1.1091608 645.39791,1.109006 L645.39691,1.109006 C645.380377,1.1093334 645.363843,1.10966673 645.34731,1.110006 C645.33551,1.10966964 645.32371,1.10933631 645.31191,1.109006 L645.3205,1.109766 Z" id="path5732" fill="#82cde2"></path>
            <path d="M474.00018,429.32411 C474.00018,428.84753 477.8762,402.72166 482.61361,371.26666 C487.35101,339.81166 491.25042,312.90592 491.27912,311.47619 C491.31452,310.04647 509.43467,308.87682 531.56191,308.87682 C566.82384,308.87682 571.53325,309.55395 569.68931,314.35938 C568.53207,317.37473 567.58565,322.05403 567.58565,324.75757 C567.58565,328.52517 562.01203,329.6732 543.72679,329.6732 C521.91455,329.6732 519.689,330.34218 517.77809,337.47202 C512.80683,356.02265 514.12353,357.40241 536.79467,357.40241 C557.08931,357.40241 557.9064,357.73548 555.9055,365.20123 C554.75605,369.4904 553.79439,374.1697 553.76817,375.59942 C553.73277,377.02914 544.54459,378.19914 533.32861,378.19914 C515.11069,378.19914 512.71329,379.03076 510.84597,385.99796 C505.70144,405.19525 506.61916,405.928 535.81282,405.928 C550.74573,405.928 563.73514,406.69903 564.67731,407.64155 C565.61947,408.58371 565.70239,414.04288 564.86156,419.77277 L563.33262,430.1908 L518.6664,430.1908 C494.09994,430.1908 474.00018,429.80103 474.00018,429.32411 L474.00018,429.32411 Z M578.79384,425.77584 C578.79384,423.34761 587.11034,396.44186 597.27538,365.98537 L615.75727,310.60985 L631.75388,309.56068 C649.8212,308.37615 646.87849,303.35918 660.61624,358.76942 C667.56113,386.78103 666.89038,387.19596 692.24522,339.20505 L708.26876,308.87682 L723.09502,308.87682 C740.88101,308.87682 740.33215,306.93367 743.4127,380.79851 L745.47278,430.1908 L731.45546,430.1908 C723.74628,430.1908 717.24006,429.80103 716.9977,429.32446 C716.75676,428.84788 715.58534,411.30072 714.39798,390.33072 L712.23939,352.20296 L691.44266,390.33072 C673.54506,423.14316 669.43802,428.45777 661.98042,428.45777 C653.89459,428.45777 652.69376,426.0593 644.01904,392.58781 C638.90569,372.85938 633.99821,355.99359 633.11309,355.10848 C632.22833,354.22371 625.75435,370.75501 618.72691,391.84513 L605.94939,430.1908 L592.3718,430.1908 C583.68502,430.1908 578.79384,428.60056 578.79384,425.77584 L578.79384,425.77584 Z M772.42353,423.39828 C763.86821,413.94474 767.79526,399.82288 779.81841,396.80505 C791.87416,393.77942 799.75483,399.12627 801.18987,411.30603 C803.20813,428.43544 784.20928,436.4217 772.42353,423.39828 Z M780.96219,357.62812 C780.96219,316.93288 784.05975,308.87682 799.70664,308.87682 C818.67113,308.87682 818.96097,314.31403 802.98455,370.40033 C798.55932,385.93525 796.56939,388.59733 789.3818,388.59733 C781.09471,388.59733 780.96219,388.11013 780.96219,357.62812 Z" id="path5835" fill="#FFFFFF"></path>
        </g>
    </g>
</svg>
