<?xml version="1.0" encoding="UTF-8"?>
<svg width="861px" height="740px" viewBox="0 0 861 740" version="1.1" xmlns="http://www.w3.org/2000/svg" xmlns:xlink="http://www.w3.org/1999/xlink">
    <!-- Generator: Sketch 42 (36781) - http://www.bohemiancoding.com/sketch -->
    <title>layer1</title>
    <desc>Created with Sketch.</desc>
    <defs></defs>
    <g id="Page-1" stroke="none" stroke-width="1" fill="none" fill-rule="evenodd">
        <g id="layer1">
            <path d="M429.898732,585.60035 L585.87986,585.60035 C617.91723,583.18098 599.54636,552.04417 585.61836,514.25091 C584.301947,511.31544 583.236546,508.28719 582.43215,505.19457 C582.37365,505.0174 582.31097,504.84378 582.25286,504.66945 L582.30496,504.66745 C581.151732,500.170936 580.556332,495.565405 580.53051,490.94174 C580.530217,457.656314 609.419295,430.672904 645.05612,430.67256 C662.169694,430.67249 678.582358,437.022245 690.683459,448.32493 C702.784559,459.627616 709.582821,474.957359 709.58268,490.94174 C709.559794,495.562889 708.967941,500.166246 707.81879,504.66107 L708.13308,504.66107 C694.26578,546.63367 669.8064,582.95292 704.47234,585.59268 L860.21405,585.59268 L860.21405,429.83989 C857.57443,395.17111 821.25783,419.63233 779.28825,433.50083 L779.27765,433.18548 C774.783259,434.334634 770.180352,434.926476 765.55966,434.94934 C749.57644,434.949538 734.247788,428.150832 722.945888,416.048885 C711.643987,403.946938 705.294646,387.533094 705.29467,370.41827 C705.294825,353.30357 711.644244,336.889912 722.946125,324.788121 C734.248007,312.686329 749.576556,305.887722 765.55966,305.88792 L765.56066,305.88792 C770.183858,305.913746 774.788924,306.509159 779.28499,307.66241 L779.28699,307.60921 C779.46309,307.66591 779.63636,307.72968 779.81207,307.78992 C782.904487,308.594386 785.932536,309.659882 788.86781,310.97641 C826.65831,324.90515 857.7925,343.27755 860.2118,311.23862 L860.2118,155.245936 L704.4702,155.245936 C669.80429,152.606166 694.26367,116.286916 708.13093,74.31432 L707.81664,74.31432 C708.965777,69.8197067 709.557666,65.2165646 709.58064,60.595624 C709.58088,44.61117 702.782651,29.2813261 690.681522,17.978563 C678.580393,6.6758 662.167652,0.326005828 645.054,0.326096 C627.940533,0.326270887 611.528067,6.67618207 599.42717,17.9789164 C587.326272,29.2816507 580.52819,44.6113432 580.52843,60.595624 C580.554285,65.21917 581.149688,69.8245804 582.30289,74.320978 L582.25119,74.323078 C582.30929,74.500244 582.37202,74.673866 582.43049,74.848196 C583.234886,77.940816 584.300287,80.9690659 585.6167,83.9045352 C599.54469,121.697446 617.91557,152.834256 585.87819,155.253626 L429.898522,155.253626 L429.898522,311.24595 C432.317752,343.28595 463.45197,324.91355 501.24248,310.98375 C504.178071,309.66729 507.20644,308.601911 510.29917,307.79761 C510.47492,307.73741 510.64819,307.67713 510.82425,307.6169 L510.82625,307.67 C515.322313,306.516629 519.92739,305.921098 524.55061,305.89516 L524.55161,305.89516 C540.534714,305.894962 555.863263,312.693569 567.165145,324.795361 C578.467026,336.897152 584.816445,353.31081 584.8166,370.42551 C584.81671,387.540395 578.467408,403.954328 567.165498,416.056351 C555.863588,428.158374 540.534887,434.957128 524.55161,434.95693 C519.930908,434.934068 515.327991,434.342226 510.83359,433.19307 L510.82659,433.50842 C468.85696,419.64027 432.540262,395.17905 429.900712,429.84748 L429.898732,585.60035 Z" id="path5712" fill="#CCCCCC" fill-rule="nonzero"></path>
            <path d="M215.33178,1.216529 C232.446808,1.2163836 248.860882,7.56575842 260.962955,18.8678106 C273.065029,30.1698627 279.863721,45.498748 279.863342,61.482159 C279.840554,66.102817 279.248796,70.7056974 278.099732,75.200073 L278.414022,75.200073 C265.517802,114.227826 243.47128,148.360156 268.319852,155.076846 L430.505842,155.076846 L430.505842,310.81866 C430.491642,311.02063 430.467942,311.21338 430.450242,311.41252 C433.075582,342.9522 464.11672,324.67299 501.7678,310.7974 C504.703093,309.481286 507.731138,308.416145 510.82353,307.61197 C510.99928,307.55527 511.17184,307.49149 511.3483,307.43126 L511.3503,307.48436 C515.846695,306.331027 520.452118,305.735496 525.07569,305.70952 C541.060076,305.70906 556.389943,312.50702 567.692839,324.607903 C578.995736,336.708786 585.345772,353.121331 585.34599,370.23491 C585.346037,387.348451 578.996283,403.761077 567.693617,415.862154 C556.390951,427.963231 541.061242,434.761489 525.07689,434.76137 C520.455802,434.738597 515.852492,434.146872 511.3577,432.99786 L511.3507,433.31322 C469.62032,419.52621 433.483692,395.2783 430.473722,429.06834 C430.484322,429.18526 430.498522,429.29511 430.505622,429.41204 L430.505622,585.39373 L268.319632,585.39373 C243.47106,592.11042 265.516452,626.24416 278.412562,665.27192 L278.099692,665.27192 C279.248755,669.766294 279.840513,674.369173 279.863302,678.98983 C279.863681,694.973241 273.064989,710.302126 260.962915,721.604178 C248.860842,732.906231 232.446768,739.255605 215.33174,739.25546 C215.315207,739.255133 215.298673,739.254799 215.28214,739.25446 C215.270207,739.254796 215.258273,739.25513 215.24634,739.25546 C198.131317,739.255597 181.717252,732.906219 169.615185,721.604168 C157.513119,710.302117 150.714431,694.973236 150.71481,678.98983 C150.737612,674.369172 151.329383,669.766293 152.47846,665.27192 L152.16417,665.27192 C165.06035,626.24416 187.10692,592.11042 162.25827,585.39373 L0.07166,585.39378 L0.07166,429.65197 C0.08586,429.45 0.10956,429.25902 0.12766,429.06059 C0.10996,428.86925 0.09006,428.68854 0.07166,428.5011 L0.07166,311.70413 C0.08226,311.60138 0.09646,311.50571 0.10356,311.40295 C0.09296,311.28602 0.07876,311.17618 0.07166,311.05925 L0.07166,155.077556 L0.15846,155.077556 L162.25775,155.077556 C187.10639,148.360856 165.05979,114.227116 152.16364,75.199364 L152.47793,75.199364 C151.328866,70.7049887 150.737108,66.1021087 150.71432,61.481451 C150.713941,45.4982458 157.512459,30.1695406 169.614257,18.8675226 C181.716055,7.56550455 198.129802,1.21599066 215.24461,1.215821 L215.24561,1.215821 C215.262144,1.21628173 215.278677,1.2167484 215.29521,1.217221 C215.307143,1.21675124 215.319077,1.21628457 215.33101,1.215821 L215.33178,1.216529 Z" id="path5714" fill="#82cde2" fill-rule="nonzero"></path>
            <g id="g5718" transform="translate(214.423135, 376.852591) scale(-1, 1) rotate(-180.000000) translate(-214.423135, -376.852591) translate(110.739792, 240.737492)" stroke="#FFFFFF" stroke-width="33.2115468" stroke-linecap="round" stroke-linejoin="round">
                <path d="M79.8040567,238.391818 C96.9737971,254.926505 101.811868,265.024712 96.8756861,270.502431 C91.9394991,275.980081 62.2666089,265.259233 48.2121008,257.160788 C19.0192301,240.339207 0.449575888,209.039722 0.449575888,171.208707 C0.449575888,114.191979 46.6707423,67.9708242 103.687446,67.9708242 C160.704149,67.9708242 205.771613,112.238983 206.925319,171.208707 C208.079024,230.178441 168.22189,260.74173 133.857191,232.946432 C89.7936961,197.306433 72.8968689,90.8109771 97.0954407,0.449204397" id="path5716"></path>
            </g>
        </g>
    </g>
</svg>
