<?xml version="1.0" encoding="UTF-8" standalone="no"?>
<!-- Created with Inkscape (http://www.inkscape.org/) -->

<svg
   xmlns:dc="http://purl.org/dc/elements/1.1/"
   xmlns:cc="http://creativecommons.org/ns#"
   xmlns:rdf="http://www.w3.org/1999/02/22-rdf-syntax-ns#"
   xmlns:svg="http://www.w3.org/2000/svg"
   xmlns="http://www.w3.org/2000/svg"
   version="1.1"
   width="819"
   height="348"
   id="svg3034">
  <defs
     id="defs3036" />
  <metadata
     id="metadata3039">
    <rdf:RDF>
      <cc:Work
         rdf:about="">
        <dc:format>image/svg+xml</dc:format>
        <dc:type
           rdf:resource="http://purl.org/dc/dcmitype/StillImage" />
        <dc:title></dc:title>
      </cc:Work>
    </rdf:RDF>
  </metadata>
  <g
     id="g3096">
    <text
       x="617.07007"
       y="162.93954"
       id="text3044"
       xml:space="preserve"
       style="font-size:131.25570679px;font-style:normal;font-variant:normal;font-weight:bold;font-stretch:normal;line-height:125%;letter-spacing:0px;word-spacing:0px;text-anchor:middle;fill:#04b4c7;fill-opacity:1;stroke:none;font-family:Montserrat;-inkscape-font-specification:Sans Bold"><tspan
         x="617.07007"
         y="162.93954"
         id="tspan3046"
         style="fill:#04b4c7;fill-opacity:1">$stat%</tspan></text>
    <text
       x="84.997581"
       y="99.157066"
       id="soustitre1-1-3"
       xml:space="preserve"
       style="font-size:41.08864212px;font-style:normal;font-variant:normal;font-weight:bold;font-stretch:normal;line-height:125%;letter-spacing:0px;word-spacing:0px;fill:#c9462c;fill-opacity:1;stroke:none;font-family:Montserrat;-inkscape-font-specification:Sans Bold"><tspan
         x="84.997581"
         y="99.157066"
         id="tspan3015-4-6"
         style="font-size:41.08864212px;font-style:normal;font-variant:normal;font-weight:400;font-stretch:normal;text-align:start;line-height:125%;writing-mode:lr-tb;text-anchor:start;fill:#c9462c;fill-opacity:1;font-family:Montserrat;-inkscape-font-specification:Montserrat Medium">Nous prenons</tspan></text>
    <text
       x="37.941151"
       y="151.94124"
       id="soustitres2-1-7"
       xml:space="preserve"
       style="font-size:51.2855072px;font-style:normal;font-variant:normal;font-weight:bold;font-stretch:normal;line-height:125%;letter-spacing:0px;word-spacing:0px;fill:#04b4c7;fill-opacity:1;stroke:none;font-family:Montserrat;-inkscape-font-specification:Sans Bold"><tspan
         x="37.941151"
         y="151.94124"
         id="tspan3019-1-5"
         style="font-size:51.2855072px;font-style:normal;font-variant:normal;font-weight:bold;font-stretch:normal;text-align:start;line-height:125%;writing-mode:lr-tb;text-anchor:start;fill:#04b4c7;fill-opacity:1;font-family:Montserrat;-inkscape-font-specification:Montserrat Bold">l'engagement</tspan></text>
    <text
       x="155.16959"
       y="204.40089"
       id="text3175-3"
       xml:space="preserve"
       style="font-size:41.08864212px;font-style:normal;font-variant:normal;font-weight:bold;font-stretch:normal;line-height:125%;letter-spacing:0px;word-spacing:0px;fill:#c9462c;fill-opacity:1;stroke:none;font-family:Montserrat;-inkscape-font-specification:Sans Bold"><tspan
         x="155.16959"
         y="204.40089"
         id="tspan3177-5"
         style="font-size:41.08864212px;font-style:normal;font-variant:normal;font-weight:400;font-stretch:normal;text-align:start;line-height:125%;writing-mode:lr-tb;text-anchor:start;fill:#c9462c;fill-opacity:1;font-family:Montserrat;-inkscape-font-specification:Montserrat Medium">d'être</tspan></text>
    <text
       x="59.294605"
       y="256.35434"
       id="text3208-6"
       xml:space="preserve"
       style="font-size:51.2855072px;font-style:normal;font-variant:normal;font-weight:bold;font-stretch:normal;line-height:125%;letter-spacing:0px;word-spacing:0px;fill:#04b4c7;fill-opacity:1;stroke:none;font-family:Montserrat;-inkscape-font-specification:Sans Bold"><tspan
         x="59.294605"
         y="256.35434"
         id="tspan3210-2"
         style="font-size:51.2855072px;font-style:normal;font-variant:normal;font-weight:bold;font-stretch:normal;text-align:start;line-height:125%;writing-mode:lr-tb;text-anchor:start;fill:#04b4c7;fill-opacity:1;font-family:Montserrat;-inkscape-font-specification:Montserrat Bold">exemplaires</tspan></text>
    <path
       d="M 37.313029,65.37844 C 33.243323,64.536678 29.730448,61.396208 27.86622,56.933141 27.042579,54.961277 26.944746,54.305454 26.932347,50.6718 c -0.01139,-3.335342 0.12477,-4.48931 0.763896,-6.474128 1.763909,-5.477729 6.419621,-11.290428 12.245177,-15.288238 1.744747,-1.197334 2.305746,-1.406557 3.771573,-1.406557 2.069588,0 1.926944,0.316226 -1.013611,2.247032 -3.100551,2.035888 -6.204863,5.398117 -7.069047,7.6564 -1.05362,2.753248 -1.320112,5.830585 -0.64487,7.446661 0.685483,1.640577 1.984343,2.194328 6.067081,2.586569 3.48996,0.33531 4.628608,0.688444 6.279315,1.947504 3.702401,2.823965 3.681445,10.247612 -0.03822,13.513445 -2.262104,1.986165 -6.850624,3.125367 -9.980676,2.477952 z m 29.960664,-0.0029 c -2.421079,-0.408351 -5.59097,-2.258091 -7.064739,-4.122536 -4.241803,-5.366299 -4.899338,-12.414222 -1.80989,-19.400014 2.041107,-4.615297 6.530457,-9.765194 11.259769,-12.916497 1.815089,-1.209356 2.418029,-1.434186 3.84652,-1.434186 1.522591,0 1.648044,0.05545 1.239709,0.547433 -0.249895,0.301104 -1.524225,1.269716 -2.831829,2.152467 -1.307635,0.882762 -3.037388,2.321375 -3.843916,3.196908 -4.059645,4.407114 -5.006302,11.527747 -1.756026,13.208539 0.602722,0.311671 2.326048,0.632947 4.000879,0.745862 6.686936,0.450768 9.537641,3.118217 9.537641,8.9245 0,4.908548 -3.089845,8.211982 -8.502519,9.090258 -1.18348,0.192041 -2.22789,0.332408 -2.320909,0.311938 -0.09298,-0.0205 -0.882624,-0.157568 -1.75469,-0.304639 z"
       id="path3202-9"
       style="fill:#c9462c;fill-opacity:1" />
    <path
       d="m 387.39185,316.52649 c 4.06972,-0.84177 7.5826,-3.98224 9.44682,-8.44527 0.82366,-1.9719 0.92148,-2.62769 0.9339,-6.26143 0.0114,-3.3353 -0.12478,-4.48927 -0.76391,-6.4741 -1.76389,-5.47772 -6.41961,-11.29041 -12.2452,-15.28824 -1.74473,-1.19732 -2.30572,-1.40654 -3.77155,-1.40654 -2.06958,0 -1.92696,0.31622 1.01361,2.24704 3.10055,2.03589 6.20485,5.39812 7.06905,7.6564 1.05362,2.75324 1.3201,5.83058 0.64486,7.44666 -0.68547,1.64057 -1.98434,2.1943 -6.06707,2.58657 -3.48997,0.3353 -4.62861,0.68844 -6.27932,1.94748 -3.70239,2.82397 -3.68146,10.24762 0.0383,13.51347 2.26208,1.98616 6.85061,3.12532 9.98068,2.47796 z m -29.96064,0 c 2.42108,-0.40831 5.59097,-2.25812 7.06474,-4.12247 4.24181,-5.36629 4.89933,-12.41422 1.80989,-19.40004 -2.04111,-4.61532 -6.53046,-9.76521 -11.25977,-12.9165 -1.81509,-1.20937 -2.41803,-1.43421 -3.84653,-1.43421 -1.52259,0 -1.64805,0.0555 -1.2397,0.54744 0.2499,0.3011 1.52422,1.26971 2.83184,2.15247 1.30763,0.88276 3.03738,2.32137 3.84388,3.19692 4.05966,4.40711 5.00634,11.52774 1.75605,13.20853 -0.60272,0.31167 -2.32604,0.63294 -4.00089,0.74584 -6.68693,0.45079 -9.53762,3.11825 -9.53762,8.92453 0,4.90857 3.08983,8.21195 8.50251,9.09025 1.18348,0.19202 2.22789,0.33245 2.32092,0.31195 0.093,-0.0208 0.88262,-0.15755 1.75468,-0.30462 z"
       id="path3206-1"
       style="fill:#c9462c;fill-opacity:1" />
    <text
       x="451.64914"
       y="264.71814"
       id="soustitre3"
       xml:space="preserve"
       style="font-size:33.64440536px;font-style:normal;font-variant:normal;font-weight:bold;font-stretch:normal;line-height:125%;letter-spacing:0px;word-spacing:0px;fill:#04b4c7;fill-opacity:1;stroke:none;font-family:Montserrat;-inkscape-font-specification:Sans Bold"><tspan
         x="451.64914"
         y="264.71814"
         id="tspan3023"
         style="font-size:33.64440536px;font-style:normal;font-variant:normal;font-weight:400;font-stretch:normal;text-align:start;line-height:125%;writing-mode:lr-tb;text-anchor:start;fill:#04b4c7;fill-opacity:1;font-family:Montserrat;-inkscape-font-specification:Montserrat Medium">en </tspan></text>
    <text
       x="505.49985"
       y="266.77277"
       id="text3272"
       xml:space="preserve"
       style="font-size:42.50504303px;font-style:normal;font-variant:normal;font-weight:bold;font-stretch:normal;line-height:125%;letter-spacing:0px;word-spacing:0px;fill:#c9462c;fill-opacity:1;stroke:none;font-family:Montserrat;-inkscape-font-specification:Sans Bold"><tspan
         x="505.49985"
         y="266.77277"
         id="tspan3274"
         style="font-size:42.50504303px;font-style:normal;font-variant:normal;font-weight:bold;font-stretch:normal;text-align:start;line-height:125%;writing-mode:lr-tb;text-anchor:start;fill:#c9462c;fill-opacity:1;font-family:Montserrat;-inkscape-font-specification:Montserrat Bold">commission</tspan></text>
    <text
       x="532.08417"
       y="222.74104"
       id="soustitres2"
       xml:space="preserve"
       style="font-size:42.50504303px;font-style:normal;font-variant:normal;font-weight:bold;font-stretch:normal;line-height:125%;letter-spacing:0px;word-spacing:0px;fill:#c9462c;fill-opacity:1;stroke:none;font-family:Montserrat;-inkscape-font-specification:Sans Bold"><tspan
         x="532.08417"
         y="222.74104"
         id="tspan3019"
         style="font-size:42.50504303px;font-style:normal;font-variant:normal;font-weight:bold;font-stretch:normal;text-align:start;line-height:125%;writing-mode:lr-tb;text-anchor:start;fill:#c9462c;fill-opacity:1;font-family:Montserrat;-inkscape-font-specification:Montserrat Bold">présence</tspan></text>
    <text
       x="479.64914"
       y="218.9763"
       id="text3276"
       xml:space="preserve"
       style="font-size:33.64440536px;font-style:normal;font-variant:normal;font-weight:bold;font-stretch:normal;line-height:125%;letter-spacing:0px;word-spacing:0px;fill:#04b4c7;fill-opacity:1;stroke:none;font-family:Montserrat;-inkscape-font-specification:Sans Bold"><tspan
         x="479.64914"
         y="218.9763"
         id="tspan3278"
         style="font-size:33.64440536px;font-style:normal;font-variant:normal;font-weight:400;font-stretch:normal;text-align:start;line-height:125%;writing-mode:lr-tb;text-anchor:start;fill:#04b4c7;fill-opacity:1;font-family:Montserrat;-inkscape-font-specification:Montserrat Medium">de </tspan></text>
  </g>
</svg>
